<svg xmlns="http://www.w3.org/2000/svg" width="24" height="24" fill="white" viewBox="0 0 24 24">
  <path d="M20.447 20.452h-3.554v-5.569c0-1.327-.027-3.037-1.849-3.037-1.851 0-2.134 1.445-2.134 2.939v5.667h-3.554v-11.5h3.413v1.569h.049c.476-.9 1.637-1.849 3.37-1.849 3.601 0 4.267 2.368 4.267 5.448v6.332zm-14.452-13.5c-1.144 0-2.07-.927-2.07-2.07 0-1.144.926-2.07 2.07-2.07s2.07.926 2.07 2.07c0 1.143-.926 2.07-2.07 2.07zm1.777 13.5h-3.554v-11.5h3.554v11.5zm16.225-20.452h-22.004c-.663 0-1.201.537-1.201 1.2v21.6c0 .663.538 1.2 1.201 1.2h22.004c.663 0 1.201-.537 1.201-1.2v-21.6c0-.663-.538-1.2-1.201-1.2z"></path>
</svg>
