<svg xmlns="http://www.w3.org/2000/svg" width="24" height="24" fill="white" viewBox="0 0 24 24">
  <path d="M23.954 4.569c-.885.389-1.83.654-2.825.775 1.014-.611 1.794-1.574 2.163-2.724-.95.564-2.005.974-3.127 1.195-.897-.959-2.178-1.559-3.594-1.559-3.179 0-5.515 2.966-4.797 6.045-4.091-.205-7.719-2.165-10.148-5.144-1.29 2.213-.669 5.108 1.523 6.574-.806-.026-1.566-.247-2.229-.616v.061c0 2.385 1.693 4.374 3.946 4.827-.735.199-1.517.232-2.224.084.626 1.956 2.444 3.379 4.6 3.419-2.07 1.623-4.678 2.348-7.29 2.034 2.179 1.397 4.768 2.209 7.557 2.209 9.142 0 14.307-7.721 13.995-14.646.961-.695 1.8-1.562 2.46-2.549z"></path>
</svg>
